<svg xmlns="http://www.w3.org/2000/svg" xmlns:xlink="http://www.w3.org/1999/xlink"><symbol id="icon-present" viewBox="0 0 19 19">
<path d="M1.1875 10.0824V17.2074C1.1875 17.8629 1.72069 18.3949 2.375 18.3949H8.3125V10.0824H1.1875Z" fill="#F0BB65"/>
<path d="M17.8125 5.33218H14.0553C14.3248 5.14812 14.5564 4.96524 14.7179 4.80137C15.6762 3.83831 15.6762 2.27081 14.7179 1.30774C13.7869 0.36962 12.1648 0.371995 11.2349 1.30774C10.7196 1.82431 9.35394 3.92737 9.54275 5.33218H9.45725C9.64488 3.92737 8.27925 1.82431 7.76506 1.30774C6.83406 0.371995 5.21194 0.371995 4.28212 1.30774C3.325 2.27081 3.325 3.83831 4.28094 4.80137C4.44362 4.96524 4.67519 5.14812 4.94475 5.33218H1.1875C0.533188 5.33218 0 5.86537 0 6.51968V8.30093C0 8.62868 0.266 8.89468 0.59375 8.89468H8.3125V6.51968H10.6875V8.89468H18.4062C18.734 8.89468 19 8.62868 19 8.30093V6.51968C19 5.86537 18.468 5.33218 17.8125 5.33218ZM8.24244 5.29299C8.24244 5.29299 8.19256 5.33218 8.02275 5.33218C7.20219 5.33218 5.63588 4.47956 5.12406 3.96418C4.6265 3.46306 4.6265 2.64606 5.12406 2.14493C5.36513 1.90268 5.68456 1.76968 6.02419 1.76968C6.36263 1.76968 6.68206 1.90268 6.92312 2.14493C7.7235 2.95006 8.51912 5.00681 8.24244 5.29299ZM10.9761 5.33218C10.8074 5.33218 10.7576 5.29418 10.7576 5.29299C10.4809 5.00681 11.2765 2.95006 12.0769 2.14493C12.5554 1.66162 13.3926 1.65925 13.8759 2.14493C14.3747 2.64606 14.3747 3.46306 13.8759 3.96418C13.3641 4.47956 11.7978 5.33218 10.9761 5.33218Z" fill="#F0BB65"/>
<path d="M10.6875 10.0824V18.3949H16.625C17.2805 18.3949 17.8125 17.8629 17.8125 17.2074V10.0824H10.6875Z" fill="#F0BB65"/>
</symbol><symbol id="icon-star-gold" viewBox="0 0 20 19">
<path fill-rule="evenodd" clip-rule="evenodd" d="M9.81509 15.9959C9.66943 15.9194 9.49541 15.9194 9.34975 15.9959L4.25896 18.6723C3.89215 18.8652 3.46343 18.5537 3.53349 18.1452L4.50574 12.4766C4.53356 12.3144 4.47979 12.1489 4.36194 12.034L0.243415 8.01943C-0.0533435 7.73017 0.110412 7.22618 0.520522 7.16659L6.21219 6.33954C6.37504 6.31588 6.51583 6.21359 6.58866 6.06602L9.13405 0.908493C9.31746 0.53687 9.84738 0.53687 10.0308 0.908493L12.5762 6.06602C12.649 6.21359 12.7898 6.31588 12.9526 6.33954L18.6443 7.16659C19.0544 7.22618 19.2182 7.73017 18.9214 8.01943L14.8029 12.034C14.685 12.1489 14.6313 12.3144 14.6591 12.4766L15.6313 18.1452C15.7014 18.5537 15.2727 18.8652 14.9059 18.6723L9.81509 15.9959Z" fill="#F0BB65"/>
</symbol><symbol id="icon-star" viewBox="0 0 20 19">
    <path fill-rule="evenodd" clip-rule="evenodd" d="M10.6503 15.9959C10.5046 15.9194 10.3306 15.9194 10.1849 15.9959L5.09414 18.6723C4.72733 18.8652 4.29861 18.5537 4.36866 18.1452L5.34092 12.4766C5.36874 12.3144 5.31496 12.1489 5.19712 12.034L1.07859 8.01943C0.781831 7.73017 0.945586 7.22618 1.3557 7.16659L7.04736 6.33954C7.21022 6.31588 7.351 6.21359 7.42383 6.06602L9.96922 0.908493C10.1526 0.53687 10.6826 0.53687 10.866 0.908493L13.4114 6.06602C13.4842 6.21359 13.625 6.31588 13.7878 6.33954L19.4795 7.16659C19.8896 7.22618 20.0534 7.73017 19.7566 8.01943L15.6381 12.034C15.5202 12.1489 15.4664 12.3144 15.4943 12.4766L16.4665 18.1452C16.5366 18.5537 16.1079 18.8652 15.741 18.6723L10.6503 15.9959Z" fill="#C1C0CD"/>
</symbol></svg>