<svg width="20" height="19" viewBox="0 0 20 19" fill="none" xmlns="http://www.w3.org/2000/svg">
<path fill-rule="evenodd" clip-rule="evenodd" d="M9.81509 15.9959C9.66943 15.9194 9.49541 15.9194 9.34975 15.9959L4.25896 18.6723C3.89215 18.8652 3.46343 18.5537 3.53349 18.1452L4.50574 12.4766C4.53356 12.3144 4.47979 12.1489 4.36194 12.034L0.243415 8.01943C-0.0533435 7.73017 0.110412 7.22618 0.520522 7.16659L6.21219 6.33954C6.37504 6.31588 6.51583 6.21359 6.58866 6.06602L9.13405 0.908493C9.31746 0.53687 9.84738 0.53687 10.0308 0.908493L12.5762 6.06602C12.649 6.21359 12.7898 6.31588 12.9526 6.33954L18.6443 7.16659C19.0544 7.22618 19.2182 7.73017 18.9214 8.01943L14.8029 12.034C14.685 12.1489 14.6313 12.3144 14.6591 12.4766L15.6313 18.1452C15.7014 18.5537 15.2727 18.8652 14.9059 18.6723L9.81509 15.9959Z" fill="#F0BB65"/>
</svg>
